<?xml version="1.0" encoding="UTF-8"?>
<svg width="150" height="150" viewBox="0 0 150 150" xmlns="http://www.w3.org/2000/svg">
  <!-- Background -->
  <defs>
    <linearGradient id="bgGradient" x1="0%" y1="0%" x2="100%" y2="100%">
      <stop offset="0%" stop-color="#000535">
        <animate attributeName="stop-color" values="#000535;#002271;#0037aa;#002271;#000535" dur="10s" repeatCount="indefinite" />
      </stop>
      <stop offset="100%" stop-color="#00288b">
        <animate attributeName="stop-color" values="#00288b;#0047cc;#00288b;#001851;#00288b" dur="8s" repeatCount="indefinite" />
      </stop>
    </linearGradient>
    <radialGradient id="glowGradient" cx="50%" cy="50%" r="50%" fx="50%" fy="50%">
      <stop offset="0%" stop-color="#0084ff" stop-opacity="0.3">
        <animate attributeName="stop-opacity" values="0.3;0.7;0.3" dur="3s" repeatCount="indefinite" />
      </stop>
      <stop offset="100%" stop-color="#0084ff" stop-opacity="0">
        <animate attributeName="stop-opacity" values="0;0.2;0" dur="3s" repeatCount="indefinite" />
      </stop>
    </radialGradient>
    <filter id="glow" x="-30%" y="-30%" width="160%" height="160%">
      <feGaussianBlur stdDeviation="5" result="blur" />
      <feComposite in="blur" in2="SourceGraphic" operator="over" />
    </filter>
    <linearGradient id="scanlineGradient" x1="0%" y1="0%" x2="0%" y2="100%">
      <stop offset="0%" stop-color="#00c6ff" stop-opacity="0.2" />
      <stop offset="100%" stop-color="#00c6ff" stop-opacity="0" />
    </linearGradient>
  </defs>

  <!-- Background Circle -->
  <circle cx="75" cy="75" r="75" fill="url(#bgGradient)" />
  
  <!-- Glow Effect -->
  <circle cx="75" cy="75" r="70" fill="url(#glowGradient)" />
  
  <!-- Grid Pattern - Enhanced precision for focused state -->
  <path d="M0 15 H150 M0 30 H150 M0 45 H150 M0 60 H150 M0 75 H150 M0 90 H150 M0 105 H150 M0 120 H150 M0 135 H150 M15 0 V150 M30 0 V150 M45 0 V150 M60 0 V150 M75 0 V150 M90 0 V150 M105 0 V150 M120 0 V150 M135 0 V150" 
        stroke="rgba(0, 84, 255, 0.3)" stroke-width="0.8" />
  
  <!-- Face -->
  <!-- Eyes - Focused (narrowed, concentrated) -->
  <path d="M50 58 H60" stroke="#00c6ff" stroke-width="3" />
  <path d="M90 58 H100" stroke="#00c6ff" stroke-width="3" />
  
  <!-- Mouth - Focused (straight line) -->
  <path d="M65 95 H85" stroke="#00c6ff" stroke-width="2" />
  
  <!-- Scanning line effect for focused -->
  <rect x="0" y="0" width="150" height="150" fill="none">
    <animate attributeName="height" values="0;150;0" dur="4s" repeatCount="indefinite" />
    <animate attributeName="y" values="0;0;150" dur="4s" repeatCount="indefinite" />
    <animate attributeName="fill" values="url(#scanlineGradient);url(#scanlineGradient);url(#scanlineGradient)" dur="4s" repeatCount="indefinite" />
  </rect>
  
  <!-- Orbiting Points - Precise, ordered for focused -->
  <g>
    <circle r="2" fill="white">
      <animateTransform attributeName="transform" type="rotate" from="0 75 75" to="360 75 75" dur="8s" repeatCount="indefinite" />
      <animateTransform attributeName="transform" additive="sum" type="translate" from="0 0" to="55 0" dur="8s" repeatCount="indefinite" />
    </circle>
    
    <circle r="2" fill="#00ffff">
      <animateTransform attributeName="transform" type="rotate" from="120 75 75" to="480 75 75" dur="8s" repeatCount="indefinite" />
      <animateTransform attributeName="transform" additive="sum" type="translate" from="0 0" to="55 0" dur="8s" repeatCount="indefinite" />
    </circle>
    
    <circle r="2" fill="#00ff84">
      <animateTransform attributeName="transform" type="rotate" from="240 75 75" to="600 75 75" dur="8s" repeatCount="indefinite" />
      <animateTransform attributeName="transform" additive="sum" type="translate" from="0 0" to="55 0" dur="8s" repeatCount="indefinite" />
    </circle>
  </g>
  
  <!-- Central Glow - Intense focus point -->
  <circle cx="75" cy="75" r="12" fill="#0084ff" opacity="0.5" filter="url(#glow)">
    <animate attributeName="opacity" values="0.5;0.8;0.5" dur="2s" repeatCount="indefinite" />
  </circle>
  
  <!-- Targeting reticle effect for focused -->
  <circle cx="75" cy="75" r="30" stroke="#00c6ff" stroke-width="0.5" fill="none" />
  <circle cx="75" cy="75" r="40" stroke="#00c6ff" stroke-width="0.5" fill="none" />
  <path d="M75 35 V45 M75 105 V115 M35 75 H45 M105 75 H115" stroke="#00c6ff" stroke-width="0.5" />
  
  <!-- Badge -->
  <text x="75" y="120" font-family="'Arial', sans-serif" font-size="8" fill="white" text-anchor="middle">FOCUSED</text>
</svg>