<?xml version="1.0" encoding="UTF-8"?>
<svg width="150" height="150" viewBox="0 0 150 150" xmlns="http://www.w3.org/2000/svg">
  <!-- Background -->
  <defs>
    <linearGradient id="bgGradient" x1="0%" y1="0%" x2="100%" y2="100%">
      <stop offset="0%" stop-color="#000535">
        <animate attributeName="stop-color" values="#000535;#002271;#0037aa;#002271;#000535" dur="10s" repeatCount="indefinite" />
      </stop>
      <stop offset="100%" stop-color="#00288b">
        <animate attributeName="stop-color" values="#00288b;#0047cc;#00288b;#001851;#00288b" dur="8s" repeatCount="indefinite" />
      </stop>
    </linearGradient>
    <radialGradient id="glowGradient" cx="50%" cy="50%" r="50%" fx="50%" fy="50%">
      <stop offset="0%" stop-color="#0084ff" stop-opacity="0.3">
        <animate attributeName="stop-opacity" values="0.3;0.7;0.3" dur="3s" repeatCount="indefinite" />
      </stop>
      <stop offset="100%" stop-color="#0084ff" stop-opacity="0">
        <animate attributeName="stop-opacity" values="0;0.2;0" dur="3s" repeatCount="indefinite" />
      </stop>
    </radialGradient>
    <filter id="glow" x="-30%" y="-30%" width="160%" height="160%">
      <feGaussianBlur stdDeviation="5" result="blur" />
      <feComposite in="blur" in2="SourceGraphic" operator="over" />
    </filter>
  </defs>

  <!-- Background Circle -->
  <circle cx="75" cy="75" r="75" fill="url(#bgGradient)" />
  
  <!-- Glow Effect -->
  <circle cx="75" cy="75" r="70" fill="url(#glowGradient)" />
  
  <!-- Grid Pattern -->
  <path d="M0 15 H150 M0 30 H150 M0 45 H150 M0 60 H150 M0 75 H150 M0 90 H150 M0 105 H150 M0 120 H150 M0 135 H150 M15 0 V150 M30 0 V150 M45 0 V150 M60 0 V150 M75 0 V150 M90 0 V150 M105 0 V150 M120 0 V150 M135 0 V150" 
        stroke="rgba(0, 84, 255, 0.2)" stroke-width="0.5" />
  
  <!-- Face -->
  <!-- Eyes - Neutral -->
  <circle cx="55" cy="60" r="8" fill="#00c6ff" filter="url(#glow)" />
  <circle cx="95" cy="60" r="8" fill="#00c6ff" filter="url(#glow)" />
  
  <!-- Mouth - Neutral -->
  <path d="M60 95 Q75 100 90 95" stroke="#00c6ff" stroke-width="3" fill="none" />
  
  <!-- Orbiting Points -->
  <g>
    <circle r="2.5" fill="white">
      <animateTransform attributeName="transform" type="rotate" from="0 75 75" to="360 75 75" dur="8s" repeatCount="indefinite" />
      <animateTransform attributeName="transform" additive="sum" type="translate" from="0 0" to="50 0" dur="8s" repeatCount="indefinite" />
    </circle>
    
    <circle r="2" fill="#00ffff">
      <animateTransform attributeName="transform" type="rotate" from="90 75 75" to="450 75 75" dur="12s" repeatCount="indefinite" />
      <animateTransform attributeName="transform" additive="sum" type="translate" from="0 0" to="60 0" dur="12s" repeatCount="indefinite" />
    </circle>
    
    <circle r="3" fill="#00ff84">
      <animateTransform attributeName="transform" type="rotate" from="180 75 75" to="-180 75 75" dur="10s" repeatCount="indefinite" />
      <animateTransform attributeName="transform" additive="sum" type="translate" from="0 0" to="40 0" dur="10s" repeatCount="indefinite" />
    </circle>
  </g>
  
  <!-- Central Glow -->
  <circle cx="75" cy="75" r="15" fill="#0084ff" opacity="0.3" filter="url(#glow)">
    <animate attributeName="r" values="15;18;15" dur="2s" repeatCount="indefinite" />
    <animate attributeName="opacity" values="0.3;0.6;0.3" dur="2s" repeatCount="indefinite" />
  </circle>
  
  <!-- Badge -->
  <text x="75" y="120" font-family="'Arial', sans-serif" font-size="8" fill="white" text-anchor="middle">NEUTRAL</text>
</svg>