<?xml version="1.0" encoding="UTF-8"?>
<svg width="60" height="60" viewBox="0 0 60 60" xmlns="http://www.w3.org/2000/svg">
  <defs>
    <!-- Social Button Gradient -->
    <linearGradient id="socialBgGradient" x1="0%" y1="0%" x2="100%" y2="100%">
      <stop offset="0%" stop-color="#1a1e2e" />
      <stop offset="100%" stop-color="#141824" />
    </linearGradient>
    
    <!-- Icon Glow Effect -->
    <filter id="socialIconGlow" x="-20%" y="-20%" width="140%" height="140%">
      <feGaussianBlur stdDeviation="1" result="blur" />
      <feComposite in="SourceGraphic" in2="blur" operator="over" />
    </filter>
  </defs>
  
  <!-- Social Icon Background Circle -->
  <circle cx="30" cy="30" r="25" fill="url(#socialBgGradient)" />
  
  <!-- Social Icon Border -->
  <circle cx="30" cy="30" r="25" fill="none" stroke="#2a2f45" stroke-width="1.5" />
  
  <!-- GitHub Logo Example -->
  <g transform="translate(16, 16)" filter="url(#socialIconGlow)">
    <path d="M14,0 C6.27,0 0,6.27 0,14 C0,20.19 4.01,25.45 9.57,27.3 C10.27,27.45 10.53,27.05 10.53,26.7 C10.53,26.39 10.5,25.51 10.5,24.35 C7,25.03 6.09,23.39 5.81,22.57 C5.65,22.16 4.97,20.89 4.38,20.58 C3.88,20.33 3.18,19.65 4.36,19.63 C5.47,19.61 6.26,20.63 6.51,21.06 C7.77,23.19 9.78,22.62 10.58,22.27 C10.73,21.35 11.1,20.75 11.51,20.42 C8.38,20.09 5.12,18.87 5.12,13.45 C5.12,11.9 5.67,10.63 6.54,9.62 C6.38,9.27 5.88,7.83 6.65,5.88 C6.65,5.88 7.82,5.51 10.5,7.34 C11.61,7.03 12.81,6.87 14,6.87 C15.19,6.87 16.39,7.03 17.5,7.34 C20.18,5.51 21.35,5.88 21.35,5.88 C22.12,7.83 21.62,9.27 21.46,9.62 C22.33,10.63 22.88,11.9 22.88,13.45 C22.88,18.88 19.61,20.09 16.48,20.42 C17,20.84 17.44,21.64 17.44,22.88 C17.44,24.64 17.41,26.26 17.41,26.7 C17.41,27.05 17.67,27.46 18.37,27.3 C23.93,25.45 27.94,20.19 27.94,14 C28,6.27 21.73,0 14,0 Z" fill="#ffffff" />
  </g>
</svg>