<?xml version="1.0" encoding="UTF-8"?>
<svg width="800" height="400" viewBox="0 0 800 400" xmlns="http://www.w3.org/2000/svg">
  <!-- Foreground Elements (Layer 3) -->
  <g>
    <!-- Foreground Mountains -->
    <path d="M0,350 L140,320 L220,340 L300,300 L400,330 L510,290 L600,310 L700,280 L800,320 L800,400 L0,400 Z" fill="#3e4758" />
    
    <!-- Foreground Structures -->
    <rect x="150" y="250" width="20" height="80" fill="#5b6c95" />
    <rect x="170" y="280" width="10" height="50" fill="#5b6c95" />
    <rect x="180" y="270" width="15" height="60" fill="#5b6c95" />
    
    <rect x="450" y="240" width="25" height="90" fill="#5b6c95" />
    <rect x="475" y="270" width="15" height="60" fill="#5b6c95" />
    <rect x="490" y="260" width="20" height="70" fill="#5b6c95" />
    
    <rect x="650" y="230" width="30" height="100" fill="#5b6c95" />
    <rect x="680" y="260" width="15" height="70" fill="#5b6c95" />
    <rect x="695" y="250" width="20" height="80" fill="#5b6c95" />
    
    <!-- Floating Platforms -->
    <path d="M250,220 L300,220 L310,230 L290,240 L260,240 L240,230 Z" fill="#435175" />
    <path d="M550,210 L600,210 L610,220 L590,230 L560,230 L540,220 Z" fill="#435175" />
    
    <!-- Energy Beams -->
    <line x1="200" y1="250" x2="200" y2="170" stroke="#8a6dff" stroke-width="2" opacity="0.6" />
    <line x1="470" y1="240" x2="470" y2="160" stroke="#8a6dff" stroke-width="2" opacity="0.6" />
    <line x1="670" y1="230" x2="670" y2="140" stroke="#8a6dff" stroke-width="2" opacity="0.6" />
    
    <!-- Foreground Details -->
    <circle cx="200" cy="170" r="5" fill="#8a6dff" opacity="0.8" />
    <circle cx="470" cy="160" r="5" fill="#8a6dff" opacity="0.8" />
    <circle cx="670" cy="140" r="5" fill="#8a6dff" opacity="0.8" />
  </g>
</svg>