<?xml version="1.0" encoding="UTF-8"?>
<svg width="800" height="400" viewBox="0 0 800 400" xmlns="http://www.w3.org/2000/svg">
  <!-- Background -->
  <rect width="800" height="400" fill="#0d1117" />
  
  <!-- Grid Lines -->
  <g stroke="#1a1f2a" stroke-width="1">
    <path d="M0,50 H800 M0,100 H800 M0,150 H800 M0,200 H800 M0,250 H800 M0,300 H800 M0,350 H800" />
    <path d="M50,0 V400 M100,0 V400 M150,0 V400 M200,0 V400 M250,0 V400 M300,0 V400 M350,0 V400
             M400,0 V400 M450,0 V400 M500,0 V400 M550,0 V400 M600,0 V400 M650,0 V400 M700,0 V400 M750,0 V400" />
  </g>
  
  <!-- Far Background Elements (Layer 1) -->
  <g>
    <!-- Distant Mountains -->
    <path d="M0,300 L100,250 L180,280 L260,210 L350,270 L450,200 L550,220 L650,180 L750,250 L800,230 L800,400 L0,400 Z" fill="#1e2636" />
    
    <!-- Distant Stars (randomly placed) -->
    <circle cx="50" cy="40" r="1.5" fill="#ffffff" />
    <circle cx="120" cy="80" r="1" fill="#ffffff" />
    <circle cx="180" cy="30" r="1.2" fill="#ffffff" />
    <circle cx="250" cy="120" r="1" fill="#ffffff" />
    <circle cx="300" cy="60" r="1.5" fill="#ffffff" />
    <circle cx="360" cy="90" r="1" fill="#ffffff" />
    <circle cx="420" cy="40" r="1.3" fill="#ffffff" />
    <circle cx="480" cy="100" r="1" fill="#ffffff" />
    <circle cx="540" cy="70" r="1.5" fill="#ffffff" />
    <circle cx="600" cy="50" r="1" fill="#ffffff" />
    <circle cx="660" cy="110" r="1.2" fill="#ffffff" />
    <circle cx="720" cy="30" r="1" fill="#ffffff" />
    <circle cx="780" cy="80" r="1.4" fill="#ffffff" />
    
    <!-- Distant Nebula -->
    <ellipse cx="650" cy="100" rx="100" ry="50" fill="#1a102c" opacity="0.5" />
    <ellipse cx="180" cy="150" rx="120" ry="40" fill="#151b38" opacity="0.4" />
  </g>
</svg>