<?xml version="1.0" encoding="UTF-8"?>
<svg width="800" height="200" viewBox="0 0 800 200" xmlns="http://www.w3.org/2000/svg">
  <defs>
    <!-- Quantum Particle Glow Effect -->
    <filter id="glow" x="-50%" y="-50%" width="200%" height="200%">
      <feGaussianBlur stdDeviation="5" result="blur" />
      <feComposite in="SourceGraphic" in2="blur" operator="over" />
    </filter>

    <!-- Energy Wave Gradient -->
    <linearGradient id="energyGradient" x1="0%" y1="0%" x2="100%" y2="0%">
      <stop offset="0%" stop-color="#F706B4" />
      <stop offset="50%" stop-color="#8A2BE2" />
      <stop offset="100%" stop-color="#00EEFF" />
    </linearGradient>

    <!-- Pulsating Animation -->
    <radialGradient id="pulseGradient" cx="50%" cy="50%" r="50%" fx="50%" fy="50%">
      <stop offset="0%" stop-color="#F706B4" stop-opacity="1">
        <animate attributeName="stop-opacity" values="1;0.8;1" dur="4s" repeatCount="indefinite" />
      </stop>
      <stop offset="100%" stop-color="#00EEFF" stop-opacity="0">
        <animate attributeName="stop-opacity" values="0;0.2;0" dur="4s" repeatCount="indefinite" />
      </stop>
    </radialGradient>
  </defs>

  <!-- Background -->
  <rect width="800" height="200" fill="#0D1117" />

  <!-- Quantum Grid -->
  <g stroke="url(#energyGradient)" stroke-width="0.5" opacity="0.3">
    <path d="M0,20 H800 M0,40 H800 M0,60 H800 M0,80 H800 M0,100 H800 M0,120 H800 M0,140 H800 M0,160 H800 M0,180 H800" />
    <path d="M20,0 V200 M40,0 V200 M60,0 V200 M80,0 V200 M100,0 V200 M120,0 V200 M140,0 V200 M160,0 V200 M180,0 V200
             M200,0 V200 M220,0 V200 M240,0 V200 M260,0 V200 M280,0 V200 M300,0 V200 M320,0 V200 M340,0 V200 M360,0 V200
             M380,0 V200 M400,0 V200 M420,0 V200 M440,0 V200 M460,0 V200 M480,0 V200 M500,0 V200 M520,0 V200 M540,0 V200
             M560,0 V200 M580,0 V200 M600,0 V200 M620,0 V200 M640,0 V200 M660,0 V200 M680,0 V200 M700,0 V200 M720,0 V200
             M740,0 V200 M760,0 V200 M780,0 V200" />
  </g>

  <!-- Energy Wave -->
  <path d="M0,100 Q100,50 200,100 T400,100 T600,100 T800,100" stroke="url(#energyGradient)" stroke-width="3" fill="none">
    <animate attributeName="d" values="M0,100 Q100,50 200,100 T400,100 T600,100 T800,100;
                                      M0,100 Q100,150 200,100 T400,100 T600,100 T800,100;
                                      M0,100 Q100,50 200,100 T400,100 T600,100 T800,100" 
             dur="10s" repeatCount="indefinite" />
  </path>

  <!-- Quantum Particles -->
  <g filter="url(#glow)">
    <circle cx="150" cy="100" r="3" fill="#F706B4">
      <animate attributeName="cx" values="150;170;150" dur="4s" repeatCount="indefinite" />
      <animate attributeName="cy" values="100;90;100" dur="3s" repeatCount="indefinite" />
    </circle>
    <circle cx="300" cy="100" r="4" fill="#8A2BE2">
      <animate attributeName="cx" values="300;320;300" dur="5s" repeatCount="indefinite" />
      <animate attributeName="cy" values="100;110;100" dur="4s" repeatCount="indefinite" />
    </circle>
    <circle cx="450" cy="100" r="3" fill="#00EEFF">
      <animate attributeName="cx" values="450;430;450" dur="6s" repeatCount="indefinite" />
      <animate attributeName="cy" values="100;90;100" dur="5s" repeatCount="indefinite" />
    </circle>
    <circle cx="600" cy="100" r="4" fill="#F706B4">
      <animate attributeName="cx" values="600;620;600" dur="4.5s" repeatCount="indefinite" />
      <animate attributeName="cy" values="100;110;100" dur="3.5s" repeatCount="indefinite" />
    </circle>
  </g>

  <!-- Energy Pulse -->
  <circle cx="400" cy="100" r="100" fill="url(#pulseGradient)" opacity="0.3">
    <animate attributeName="r" values="80;120;80" dur="8s" repeatCount="indefinite" />
  </circle>

  <!-- Title Text -->
  <text x="400" y="100" font-family="'Arial', sans-serif" font-size="36" font-weight="bold" text-anchor="middle" fill="white" filter="url(#glow)">
    QUANTUM VISUAL MAXIMIZER
  </text>
  
  <!-- Subtitle -->
  <text x="400" y="140" font-family="'Arial', sans-serif" font-size="16" text-anchor="middle" fill="white" opacity="0.8">
    TRANSCENDING DIMENSIONAL BOUNDARIES
  </text>
</svg>