<?xml version="1.0" encoding="UTF-8"?>
<svg width="800" height="600" viewBox="0 0 800 600" xmlns="http://www.w3.org/2000/svg">
  <defs>
    <!-- Background grid pattern -->
    <pattern id="smallGrid" width="10" height="10" patternUnits="userSpaceOnUse">
      <path d="M 10 0 L 0 0 0 10" fill="none" stroke="#333333" stroke-width="0.5" opacity="0.2"/>
    </pattern>
    <pattern id="grid" width="100" height="100" patternUnits="userSpaceOnUse">
      <rect width="100" height="100" fill="url(#smallGrid)"/>
      <path d="M 100 0 L 0 0 0 100" fill="none" stroke="#333333" stroke-width="1" opacity="0.3"/>
    </pattern>
    
    <!-- Glow filter -->
    <filter id="glow" x="-20%" y="-20%" width="140%" height="140%">
      <feGaussianBlur stdDeviation="2" result="blur" />
      <feComposite in="blur" in2="SourceGraphic" operator="over" />
    </filter>
    
    <!-- Rainbow gradient for custom theme -->
    <linearGradient id="rainbowGradient" x1="0%" y1="0%" x2="100%" y2="0%">
      <stop offset="0%" stop-color="#ff0000" />
      <stop offset="16.67%" stop-color="#ff8000" />
      <stop offset="33.33%" stop-color="#ffff00" />
      <stop offset="50%" stop-color="#00ff00" />
      <stop offset="66.67%" stop-color="#0000ff" />
      <stop offset="83.33%" stop-color="#8000ff" />
      <stop offset="100%" stop-color="#ff00ff" />
    </linearGradient>
  </defs>

  <!-- Background -->
  <rect x="0" y="0" width="800" height="600" fill="#1f2024" />
  <rect x="0" y="0" width="800" height="600" fill="url(#grid)" />
  
  <!-- Header -->
  <rect x="0" y="0" width="800" height="60" fill="#171717" />
  
  <!-- Title -->
  <text x="400" y="38" font-family="Arial, sans-serif" font-size="24" fill="#ffffff" text-anchor="middle" filter="url(#glow)">
    CUSTOM THEME GENERATOR
  </text>
  
  <!-- Main Container -->
  <rect x="50" y="80" width="700" height="500" rx="5" fill="#2c2c2c" />
  
  <!-- Back Button -->
  <a href="https://raw.githubusercontent.com/Hiroshi0Nohara/Hiroshi0Nohara/main/assets/theme-generator-core.svg">
    <rect x="60" y="90" width="80" height="30" rx="5" fill="#444444" />
    <text x="100" y="110" font-family="Arial, sans-serif" font-size="14" fill="#ffffff" text-anchor="middle">← BACK</text>
  </a>
  
  <!-- Color Picker Section -->
  <g transform="translate(60, 140)">
    <text x="0" y="0" font-family="Arial, sans-serif" font-size="18" fill="#ffffff">
      Custom Color Palette Generator
    </text>
    
    <!-- Color Selection - Primary Color -->
    <text x="0" y="30" font-family="Arial, sans-serif" font-size="14" fill="#aaaaaa">
      Primary Color:
    </text>
    <rect x="120" y="15" width="150" height="20" rx="3" fill="url(#rainbowGradient)" />
    <rect x="280" y="15" width="80" height="20" rx="3" fill="#0088ff" />
    <text x="320" y="30" font-family="monospace" font-size="12" fill="#ffffff" text-anchor="middle">#0088ff</text>
    
    <!-- Color Selection - Background Color -->
    <text x="0" y="60" font-family="Arial, sans-serif" font-size="14" fill="#aaaaaa">
      Background Color:
    </text>
    <rect x="120" y="45" width="150" height="20" rx="3" fill="#111111" />
    <rect x="280" y="45" width="80" height="20" rx="3" fill="#1a1a1a" />
    <text x="320" y="60" font-family="monospace" font-size="12" fill="#ffffff" text-anchor="middle">#1a1a1a</text>
    
    <!-- Color Selection - Accent Color -->
    <text x="0" y="90" font-family="Arial, sans-serif" font-size="14" fill="#aaaaaa">
      Accent Color:
    </text>
    <rect x="120" y="75" width="150" height="20" rx="3" fill="url(#rainbowGradient)" />
    <rect x="280" y="75" width="80" height="20" rx="3" fill="#ff3366" />
    <text x="320" y="90" font-family="monospace" font-size="12" fill="#ffffff" text-anchor="middle">#ff3366</text>
    
    <!-- Color Selection - Text Color -->
    <text x="0" y="120" font-family="Arial, sans-serif" font-size="14" fill="#aaaaaa">
      Text Color:
    </text>
    <rect x="120" y="105" width="150" height="20" rx="3" fill="#cccccc" />
    <rect x="280" y="105" width="80" height="20" rx="3" fill="#ffffff" />
    <text x="320" y="120" font-family="monospace" font-size="12" fill="#1a1a1a" text-anchor="middle">#ffffff</text>
    
    <!-- Color Harmony Type -->
    <text x="0" y="150" font-family="Arial, sans-serif" font-size="14" fill="#aaaaaa">
      Color Harmony:
    </text>
    <rect x="120" y="135" width="240" height="20" rx="3" fill="#444444" />
    <text x="140" y="150" font-family="Arial, sans-serif" font-size="12" fill="#ffffff">Complementary</text>
    <text x="250" y="150" font-family="Arial, sans-serif" font-size="12" fill="#ffffff">Analogous</text>
    <text x="330" y="150" font-family="Arial, sans-serif" font-size="12" fill="#ffffff">Triadic</text>
    
    <!-- Generate Button -->
    <rect x="210" y="165" width="150" height="30" rx="5" fill="#0088ff" />
    <text x="285" y="185" font-family="Arial, sans-serif" font-size="14" fill="#ffffff" text-anchor="middle">GENERATE PALETTE</text>
  </g>
  
  <!-- Generated Palette Preview -->
  <g transform="translate(60, 330)">
    <text x="0" y="0" font-family="Arial, sans-serif" font-size="18" fill="#ffffff">
      Generated Custom Palette
    </text>
    
    <!-- Primary Colors -->
    <text x="0" y="30" font-family="Arial, sans-serif" font-size="14" fill="#aaaaaa">Primary Colors:</text>
    <rect x="0" y="40" width="60" height="40" rx="3" fill="#0088ff" />
    <rect x="70" y="40" width="60" height="40" rx="3" fill="#0066cc" />
    <rect x="140" y="40" width="60" height="40" rx="3" fill="#00aaff" />
    <rect x="210" y="40" width="60" height="40" rx="3" fill="#0044aa" />
    <rect x="280" y="40" width="60" height="40" rx="3" fill="#55aaff" />
    
    <!-- Background Colors -->
    <text x="0" y="100" font-family="Arial, sans-serif" font-size="14" fill="#aaaaaa">Background Colors:</text>
    <rect x="0" y="110" width="60" height="40" rx="3" fill="#1a1a1a" />
    <rect x="70" y="110" width="60" height="40" rx="3" fill="#111111" />
    <rect x="140" y="110" width="60" height="40" rx="3" fill="#222222" />
    <rect x="210" y="110" width="60" height="40" rx="3" fill="#2a2a2a" />
    <rect x="280" y="110" width="60" height="40" rx="3" fill="#333333" />
    
    <!-- Accent Colors -->
    <text x="0" y="170" font-family="Arial, sans-serif" font-size="14" fill="#aaaaaa">Accent Colors:</text>
    <rect x="0" y="180" width="60" height="40" rx="3" fill="#ff3366" />
    <rect x="70" y="180" width="60" height="40" rx="3" fill="#ff6699" />
    <rect x="140" y="180" width="60" height="40" rx="3" fill="#cc3366" />
    <rect x="210" y="180" width="60" height="40" rx="3" fill="#ff99aa" />
    <rect x="280" y="180" width="60" height="40" rx="3" fill="#cc0033" />
  </g>
  
  <!-- CSS Code Preview -->
  <g transform="translate(400, 330)">
    <text x="0" y="0" font-family="Arial, sans-serif" font-size="18" fill="#ffffff">
      CSS Variables
    </text>
    
    <!-- Code Box -->
    <rect x="0" y="10" width="340" height="100" rx="5" fill="#181818" stroke="#333333" stroke-width="1" />
    
    <!-- Code Text -->
    <text x="10" y="30" font-family="monospace" font-size="12" fill="#aaaaaa">
      <!-- CSS code snippets -->
      <tspan x="10" y="30">/* Custom Theme CSS Variables */</tspan>
      <tspan x="10" y="50">:root {</tspan>
      <tspan x="10" y="70">  --primary: #0088ff;</tspan>
      <tspan x="10" y="90">  --background: #1a1a1a;</tspan>
      <tspan x="10" y="110">  --accent: #ff3366;</tspan>
    </text>
    
    <!-- Theme Preview -->
    <text x="0" y="130" font-family="Arial, sans-serif" font-size="14" fill="#ffffff">
      Theme Preview:
    </text>
    
    <!-- Preview Card -->
    <rect x="0" y="140" width="150" height="170" rx="5" fill="#1a1a1a" stroke="#333333" stroke-width="1" />
    
    <!-- Card Header -->
    <rect x="0" y="140" width="150" height="30" rx="5" fill="#111111" />
    <text x="75" y="160" font-family="Arial, sans-serif" font-size="12" fill="#0088ff" text-anchor="middle">PROFILE CARD</text>
    
    <!-- Card Content -->
    <circle cx="75" cy="195" r="15" fill="#0088ff" filter="url(#glow)" />
    <text x="75" y="230" font-family="Arial, sans-serif" font-size="10" fill="#ffffff" text-anchor="middle">User Name</text>
    <text x="75" y="245" font-family="Arial, sans-serif" font-size="8" fill="#aaaaaa" text-anchor="middle">@username</text>
    
    <!-- Card Buttons -->
    <rect x="20" y="260" width="110" height="20" rx="3" fill="#0088ff" />
    <text x="75" y="274" font-family="Arial, sans-serif" font-size="10" fill="#1a1a1a" text-anchor="middle">FOLLOW</text>
    
    <rect x="20" y="285" width="50" height="15" rx="2" fill="#ff3366" />
    <rect x="80" y="285" width="50" height="15" rx="2" fill="#0066cc" />
  </g>
  
  <!-- Download/Use Buttons -->
  <rect x="60" y="530" width="100" height="30" rx="5" fill="#0088ff" />
  <text x="110" y="550" font-family="Arial, sans-serif" font-size="14" fill="#ffffff" text-anchor="middle">DOWNLOAD</text>
  
  <rect x="170" y="530" width="100" height="30" rx="5" fill="#444444" />
  <text x="220" y="550" font-family="Arial, sans-serif" font-size="14" fill="#ffffff" text-anchor="middle">COPY CSS</text>
  
  <rect x="280" y="530" width="150" height="30" rx="5" fill="#ff3366" />
  <text x="355" y="550" font-family="Arial, sans-serif" font-size="14" fill="#ffffff" text-anchor="middle">CREATE README SVG</text>
</svg>